<mxfile host="app.diagrams.net" modified="2023-05-04T02:17:57.395Z" agent="Mozilla/5.0 (Windows NT 10.0; Win64; x64) AppleWebKit/537.36 (KHTML, like Gecko) Chrome/113.0.0.0 Safari/537.36" etag="TgXN6K_A_1f3tXzNfM54" version="21.2.7" type="github">
  <diagram name="Page-1" id="o-LaHNdq6tNX6qss74UB">
    <mxGraphModel dx="1395" dy="657" grid="1" gridSize="10" guides="1" tooltips="1" connect="1" arrows="1" fold="1" page="1" pageScale="1" pageWidth="850" pageHeight="1100" math="0" shadow="0">
      <root>
        <mxCell id="0" />
        <mxCell id="1" parent="0" />
        <mxCell id="uULMXHFzQDfnKXOe5Zbr-1" value="访客信息" style="rounded=0;whiteSpace=wrap;html=1;" parent="1" vertex="1">
          <mxGeometry x="360" y="380" width="120" height="60" as="geometry" />
        </mxCell>
        <mxCell id="uULMXHFzQDfnKXOe5Zbr-2" value="访客昵称&lt;br&gt;（username）" style="ellipse;whiteSpace=wrap;html=1;" parent="1" vertex="1">
          <mxGeometry x="280" y="220" width="120" height="80" as="geometry" />
        </mxCell>
        <mxCell id="uULMXHFzQDfnKXOe5Zbr-3" value="访客邮箱&lt;br&gt;（email）" style="ellipse;whiteSpace=wrap;html=1;" parent="1" vertex="1">
          <mxGeometry x="440" y="220" width="120" height="80" as="geometry" />
        </mxCell>
        <mxCell id="uULMXHFzQDfnKXOe5Zbr-4" value="访客网站&lt;br&gt;（website，如有）" style="ellipse;whiteSpace=wrap;html=1;" parent="1" vertex="1">
          <mxGeometry x="570" y="270" width="120" height="80" as="geometry" />
        </mxCell>
        <mxCell id="uULMXHFzQDfnKXOe5Zbr-5" value="" style="endArrow=none;html=1;rounded=0;entryX=0.633;entryY=0.963;entryDx=0;entryDy=0;entryPerimeter=0;" parent="1" target="uULMXHFzQDfnKXOe5Zbr-2" edge="1">
          <mxGeometry width="50" height="50" relative="1" as="geometry">
            <mxPoint x="410" y="380" as="sourcePoint" />
            <mxPoint x="210" y="360" as="targetPoint" />
          </mxGeometry>
        </mxCell>
        <mxCell id="uULMXHFzQDfnKXOe5Zbr-6" value="" style="endArrow=none;html=1;rounded=0;entryX=0.301;entryY=0.95;entryDx=0;entryDy=0;entryPerimeter=0;" parent="1" target="uULMXHFzQDfnKXOe5Zbr-3" edge="1">
          <mxGeometry width="50" height="50" relative="1" as="geometry">
            <mxPoint x="430" y="380" as="sourcePoint" />
            <mxPoint x="425" y="310" as="targetPoint" />
          </mxGeometry>
        </mxCell>
        <mxCell id="uULMXHFzQDfnKXOe5Zbr-8" value="" style="endArrow=none;html=1;rounded=0;exitX=1;exitY=0;exitDx=0;exitDy=0;" parent="1" target="uULMXHFzQDfnKXOe5Zbr-4" edge="1" source="uULMXHFzQDfnKXOe5Zbr-1">
          <mxGeometry width="50" height="50" relative="1" as="geometry">
            <mxPoint x="480" y="410" as="sourcePoint" />
            <mxPoint x="530" y="360" as="targetPoint" />
          </mxGeometry>
        </mxCell>
        <mxCell id="uULMXHFzQDfnKXOe5Zbr-9" value="访客评论信息（content）" style="ellipse;whiteSpace=wrap;html=1;" parent="1" vertex="1">
          <mxGeometry x="140" y="270" width="120" height="80" as="geometry" />
        </mxCell>
        <mxCell id="uULMXHFzQDfnKXOe5Zbr-10" value="" style="endArrow=none;html=1;rounded=0;entryX=0;entryY=0;entryDx=0;entryDy=0;exitX=0.937;exitY=0.764;exitDx=0;exitDy=0;exitPerimeter=0;" parent="1" target="uULMXHFzQDfnKXOe5Zbr-1" edge="1" source="uULMXHFzQDfnKXOe5Zbr-9">
          <mxGeometry width="50" height="50" relative="1" as="geometry">
            <mxPoint x="280" y="420" as="sourcePoint" />
            <mxPoint x="330" y="370" as="targetPoint" />
          </mxGeometry>
        </mxCell>
      </root>
    </mxGraphModel>
  </diagram>
</mxfile>
